<svg width="49" height="50" viewBox="0 0 49 50" fill="none" xmlns="http://www.w3.org/2000/svg">
<path d="M24.5 40C19.3959 40 14.8838 37.3333 12.25 33.3333C12.3113 29.1667 20.4167 26.875 24.5 26.875C28.5834 26.875 36.6888 29.1667 36.75 33.3333C35.4005 35.3844 33.5773 37.0654 31.4411 38.2279C29.3048 39.3905 26.9211 39.9991 24.5 40ZM24.5 10.4167C26.1245 10.4167 27.6824 11.0751 28.8311 12.2472C29.9797 13.4193 30.625 15.0091 30.625 16.6667C30.625 18.3243 29.9797 19.914 28.8311 21.0861C27.6824 22.2582 26.1245 22.9167 24.5 22.9167C22.8756 22.9167 21.3177 22.2582 20.169 21.0861C19.0203 19.914 18.375 18.3243 18.375 16.6667C18.375 15.0091 19.0203 13.4193 20.169 12.2472C21.3177 11.0751 22.8756 10.4167 24.5 10.4167ZM24.5 4.16666C21.8189 4.16666 19.164 4.70553 16.6869 5.7525C14.2099 6.79947 11.9591 8.33405 10.0633 10.2686C6.23441 14.1756 4.08337 19.4746 4.08337 25C4.08337 30.5253 6.23441 35.8244 10.0633 39.7314C11.9591 41.6659 14.2099 43.2005 16.6869 44.2475C19.164 45.2945 21.8189 45.8333 24.5 45.8333C29.9149 45.8333 35.1079 43.6384 38.9368 39.7314C42.7657 35.8244 44.9167 30.5253 44.9167 25C44.9167 13.4792 35.7292 4.16666 24.5 4.16666Z" fill="black"/>
</svg>