<svg width="63" height="47" viewBox="0 0 93 77" fill="none" xmlns="http://www.w3.org/2000/svg">
<path d="M0.00354537 0.733465C-0.0807556 0.450374 1.33831 0.308828 4.26074 0.308828C7.49228 0.308828 9.1502 0.553316 9.2345 1.04229L11.2999 17.2943L15.7678 0.849276C15.9083 0.463242 17.0042 0.270225 19.0556 0.270225C21.1069 0.270225 22.2028 0.450375 22.3433 0.810673L26.7269 17.3715L29.1717 0.965087C29.2279 0.681994 29.8742 0.488977 31.1106 0.386034C32.347 0.283093 33.3446 0.231622 34.1033 0.231622C37.0538 0.231622 38.4869 0.411772 38.4026 0.77207L33.3024 26.3661C33.19 26.7522 32.3892 27.0353 30.8998 27.2154C29.4105 27.3956 28.2022 27.4856 27.2749 27.4856C23.7905 27.4856 21.9639 27.1253 21.7953 26.4048L18.9291 15.7888L15.81 26.3661C15.6976 26.8294 14.7141 27.164 12.8594 27.3698C11.904 27.447 10.9486 27.4856 9.99321 27.4856L7.29558 27.3698C5.44096 27.1897 4.45745 26.868 4.34504 26.4048L0.00354537 0.733465Z" fill="black"/>
<path d="M53.096 27.7559C49.162 27.7559 45.9445 26.572 43.4436 24.2044C40.9707 21.8367 39.7343 18.3881 39.7343 13.8586C39.7343 9.30343 40.9848 5.85486 43.4857 3.51291C46.0147 1.17097 49.2603 0 53.2225 0C57.2127 0 60.4302 1.1581 62.8749 3.47431C65.3197 5.76478 66.542 9.25196 66.542 13.9358C66.542 18.594 65.2915 22.0683 62.7906 24.3588C60.2897 26.6235 57.0582 27.7559 53.096 27.7559ZM53.1382 7.41186C51.7893 7.41186 50.6513 7.97804 49.724 9.11041C48.8248 10.2428 48.3752 11.8384 48.3752 13.8972C48.3752 15.9304 48.8107 17.5002 49.6818 18.6069C50.5529 19.6878 51.691 20.2282 53.096 20.2282C54.5291 20.2282 55.6812 19.6749 56.5523 18.5683C57.4516 17.4616 57.9012 15.8789 57.9012 13.82C57.9012 11.7612 57.4375 10.1784 56.5102 9.07181C55.611 7.96518 54.487 7.41186 53.1382 7.41186Z" fill="black"/>
<path d="M30.7312 55.4837C28.2303 55.4837 26.9798 55.2263 26.9798 54.7116L26.0947 39.2316L20.9523 54.9046C20.8399 55.2134 19.8845 55.3679 18.0861 55.3679C16.2877 55.3679 15.3604 55.2263 15.3042 54.9432L9.99321 39.0772L9.4031 54.48C9.375 54.866 8.84109 55.1362 7.80138 55.2907C6.76167 55.4193 5.89056 55.4837 5.18805 55.4837C4.51365 55.4837 3.85329 55.4451 3.20698 55.3679C1.85817 55.1877 1.19781 54.866 1.22591 54.4028L2.19537 29.3105C2.19537 28.6929 3.90949 28.3841 7.33773 28.3841C8.34934 28.3841 9.58575 28.4613 11.047 28.6157C12.5082 28.7444 13.3231 29.0146 13.4917 29.4263L18.2125 41.5864L22.3433 29.3877C22.5962 28.7186 24.5351 28.3841 28.1601 28.3841C29.1998 28.3841 30.4362 28.4613 31.8693 28.6157C33.3305 28.7444 34.0611 28.9888 34.0611 29.3491L35.2835 54.673C35.2835 54.9561 34.7355 55.162 33.6396 55.2907C32.5437 55.4193 31.5742 55.4837 30.7312 55.4837Z" fill="black"/>
<path d="M59.2767 55.5223C56.8319 55.5223 55.5112 55.162 55.3145 54.4414L53.9235 49.4615H47.2216L45.9993 54.2484C45.8307 55.0462 44.4818 55.4451 41.9528 55.4451C40.604 55.4451 39.6064 55.3807 38.9601 55.252C38.3138 55.0976 37.9907 54.9818 37.9907 54.9046L45.4513 28.7701C45.4513 28.5642 47.3762 28.4613 51.2259 28.4613C55.0757 28.4613 57.0005 28.5642 57.0005 28.7701L64.2926 54.9432C64.2926 55.1234 63.6463 55.2649 62.3536 55.3679C61.061 55.4708 60.0354 55.5223 59.2767 55.5223ZM48.2754 44.5589H52.7012L50.8044 36.568H50.5515L48.2754 44.5589Z" fill="black"/>
<path d="M90.1845 54.5958C90.1845 55.1362 88.8638 55.4065 86.2223 55.4065C83.5809 55.4065 82.1478 55.2134 81.923 54.8274L74.8839 42.7831V54.7888C74.8839 55.252 73.5772 55.4837 70.9639 55.4837C68.3786 55.4837 67.086 55.252 67.086 54.7888V28.9631C67.086 28.5771 68.196 28.3841 70.4159 28.3841C71.287 28.3841 72.2986 28.4613 73.4507 28.6157C74.631 28.7444 75.3475 29.0017 75.6004 29.3877L82.3445 41.2776V29.1561C82.3445 28.6671 83.6512 28.4227 86.2645 28.4227C88.8778 28.4227 90.1845 28.6671 90.1845 29.1561V54.5958Z" fill="black"/>
<path d="M8.42563 66.9305C8.34399 66.299 8.01287 65.8088 7.43229 65.4599C6.8517 65.1109 6.13958 64.9365 5.29592 64.9365C4.67905 64.9365 4.13928 65.0279 3.67663 65.2106C3.21851 65.3934 2.86018 65.6448 2.60164 65.9646C2.34763 66.2845 2.22063 66.648 2.22063 67.0551C2.22063 67.3957 2.30908 67.6886 2.48598 67.9337C2.66741 68.1746 2.89874 68.3761 3.17996 68.5381C3.46118 68.696 3.75601 68.8268 4.06444 68.9307C4.37288 69.0304 4.65637 69.1114 4.91491 69.1737L6.33008 69.5226C6.69295 69.6099 7.09664 69.7303 7.54115 69.884C7.99019 70.0377 8.41883 70.2475 8.82705 70.5134C9.23981 70.7751 9.58 71.1116 9.84761 71.5228C10.1152 71.9341 10.249 72.4388 10.249 73.037C10.249 73.7266 10.0517 74.3497 9.65711 74.9064C9.26703 75.463 8.69551 75.9054 7.94257 76.2336C7.19416 76.5618 6.28472 76.7259 5.21427 76.7259C4.21639 76.7259 3.35232 76.5784 2.62205 76.2835C1.89632 75.9885 1.32481 75.5773 0.90751 75.0497C0.494751 74.5221 0.261156 73.9094 0.206726 73.2115H1.94848C1.99384 73.6934 2.17074 74.0922 2.47917 74.4079C2.79214 74.7194 3.18676 74.9521 3.66302 75.1058C4.14382 75.2553 4.6609 75.3301 5.21427 75.3301C5.85836 75.3301 6.43667 75.2345 6.94922 75.0435C7.46177 74.8482 7.86773 74.5782 8.16709 74.2334C8.46645 73.8845 8.61614 73.4774 8.61614 73.0121C8.61614 72.5884 8.48687 72.2436 8.22832 71.9777C7.96978 71.7118 7.6296 71.4958 7.20776 71.3297C6.78593 71.1635 6.33008 71.0181 5.84021 70.8935L4.12567 70.4448C3.03708 70.1582 2.17527 69.749 1.54026 69.2173C0.905242 68.6856 0.587735 67.9898 0.587735 67.1299C0.587735 66.4153 0.798651 65.7922 1.22048 65.2605C1.64685 64.7246 2.21836 64.3092 2.93502 64.0143C3.65622 63.7152 4.46133 63.5656 5.35035 63.5656C6.24844 63.5656 7.04674 63.7131 7.74526 64.008C8.44378 64.2988 8.99714 64.6976 9.40537 65.2044C9.81813 65.7112 10.0358 66.2866 10.0585 66.9305H8.42563Z" fill="black"/>
<path d="M21.6449 76.5016V63.7401H26.3531C27.4463 63.7401 28.3398 63.9208 29.0338 64.2822C29.7323 64.6395 30.2494 65.1234 30.585 65.7341C30.9207 66.3447 31.0885 67.026 31.0885 67.7779C31.0885 68.5298 30.9207 69.2131 30.585 69.828C30.2539 70.4428 29.7414 70.933 29.0474 71.2985C28.3534 71.6599 27.4644 71.8406 26.3803 71.8406H23.0057V70.4698H26.3259C27.0743 70.4698 27.6753 70.3514 28.1289 70.1146C28.5825 69.8778 28.9113 69.5579 29.1154 69.155C29.3241 68.7479 29.4284 68.2889 29.4284 67.7779C29.4284 67.2669 29.3241 66.81 29.1154 66.407C28.9113 66.0041 28.5802 65.6884 28.1221 65.4599C27.664 65.2273 27.0562 65.1109 26.2987 65.1109H23.3323V76.5016H21.6449Z" fill="black"/>
<path d="M41.5778 76.5016H39.8089L44.9253 63.7401H46.667L51.7834 76.5016H50.0145L45.8506 65.759H45.7417L41.5778 76.5016ZM42.231 71.5166H49.3613V72.8875H42.231V71.5166Z" fill="black"/>
<path d="M73.1332 67.728H71.4459C71.3461 67.2836 71.1714 66.8931 70.922 66.5566C70.677 66.2201 70.3777 65.9376 70.0239 65.7091C69.6746 65.4765 69.2868 65.302 68.8604 65.1857C68.4341 65.0694 67.9896 65.0112 67.5269 65.0112C66.6833 65.0112 65.919 65.2065 65.2341 65.597C64.5537 65.9875 64.0117 66.5628 63.608 67.323C63.2088 68.0832 63.0092 69.0158 63.0092 70.1208C63.0092 71.2258 63.2088 72.1584 63.608 72.9186C64.0117 73.6788 64.5537 74.2542 65.2341 74.6447C65.919 75.0351 66.6833 75.2304 67.5269 75.2304C67.9896 75.2304 68.4341 75.1722 68.8604 75.0559C69.2868 74.9396 69.6746 74.7672 70.0239 74.5387C70.3777 74.3061 70.677 74.0215 70.922 73.6851C71.1714 73.3444 71.3461 72.9539 71.4459 72.5136H73.1332C73.0062 73.1658 72.7749 73.7494 72.4392 74.2646C72.1036 74.7797 71.6863 75.2179 71.1873 75.5793C70.6884 75.9366 70.1282 76.2087 69.5068 76.3956C68.8899 76.5826 68.23 76.676 67.5269 76.676C66.3385 76.676 65.2817 76.4102 64.3564 75.8784C63.4311 75.3467 62.7031 74.5907 62.1724 73.6103C61.6417 72.6299 61.3763 71.4668 61.3763 70.1208C61.3763 68.7749 61.6417 67.6117 62.1724 66.6314C62.7031 65.651 63.4311 64.8949 64.3564 64.3632C65.2817 63.8315 66.3385 63.5656 67.5269 63.5656C68.23 63.5656 68.8899 63.6591 69.5068 63.846C70.1282 64.033 70.6884 64.3071 71.1873 64.6685C71.6863 65.0258 72.1036 65.462 72.4392 65.9771C72.7749 66.488 73.0062 67.0717 73.1332 67.728Z" fill="black"/>
<path d="M84.4815 76.5016V63.7401H92.8909V65.1109H86.1688V69.4229H92.4554V70.7938H86.1688V75.1307H92.9997V76.5016H84.4815Z" fill="black"/>
</svg>
