<svg width="43" height="43" viewBox="0 0 43 43" fill="none" xmlns="http://www.w3.org/2000/svg">
<path fill-rule="evenodd" clip-rule="evenodd" d="M21.6075 10.6425C22.1107 11.1464 22.3934 11.8295 22.3934 12.5417C22.3934 13.2539 22.1107 13.9369 21.6075 14.4408L14.5519 21.5L21.611 28.5592C22.1004 29.0663 22.3709 29.7453 22.3645 30.4499C22.358 31.1546 22.0751 31.8285 21.5765 32.3265C21.078 32.8246 20.4038 33.1069 19.6992 33.1127C18.9945 33.1185 18.3158 32.8473 17.8091 32.3575L8.85079 23.3992C8.34751 22.8953 8.06482 22.2122 8.06482 21.5C8.06482 20.7878 8.34751 20.1047 8.85079 19.6008L17.8091 10.6425C18.0587 10.3928 18.355 10.1946 18.6812 10.0595C19.0074 9.92431 19.357 9.85474 19.7101 9.85474C20.0632 9.85474 20.4128 9.92431 20.7389 10.0595C21.0651 10.1946 21.3615 10.3928 21.611 10.6425H21.6075ZM32.3575 10.6425C32.8607 11.1464 33.1434 11.8295 33.1434 12.5417C33.1434 13.2539 32.8607 13.9369 32.3575 14.4408L25.3019 21.5L32.361 28.5592C32.8504 29.0663 33.1209 29.7453 33.1145 30.4499C33.108 31.1546 32.8251 31.8285 32.3265 32.3265C31.828 32.8246 31.1538 33.1069 30.4492 33.1127C29.7445 33.1185 29.0658 32.8473 28.5591 32.3575L19.6008 23.3992C19.0975 22.8953 18.8148 22.2122 18.8148 21.5C18.8148 20.7878 19.0975 20.1047 19.6008 19.6008L28.5591 10.6425C28.8087 10.3928 29.105 10.1946 29.4312 10.0595C29.7574 9.92431 30.107 9.85474 30.4601 9.85474C30.8132 9.85474 31.1628 9.92431 31.4889 10.0595C31.8151 10.1946 32.1115 10.3928 32.361 10.6425H32.3575Z" fill="#FFFEFE"/>
</svg>